# xmcd
#
# Track frame offsets:
#	150
#	8958
#	23101
#	31809
#	39590
#	47262
#	55537
#	67752
#	78202
#	94788
#	107293
#	115968
#	125524
#	135249
#	146067
#	155241
#	164570
#	175016
#	185125
#	196500
#	205555
#	217609
#	225921
#	235472
#	247072
#	255375
#
# Disc length: 3555 seconds
#
# Revision: 0
# Processed by: cddbd v1.5.2PL0 Copyright (c) Steve Scherf et al.
# Submitted via: EasyCDDAExtractor 12.0.1.1
#
DISCID=450de11a
DTITLE=Johnny Cash - Complete Recording Sessions [Cd 07] 1959-1960 Sessions
DYEAR=2005
DGENRE=Country
TTITLE0=Johnny Yuma Theme
TTITLE1=Going To Memphis
TTITLE2=Second Honey Moon
TTITLE3=When Papa Played The Dobro
TTITLE4=Boss Jack
TTITLE5=Lumberjack
TTITLE6=Slow Rider
TTITLE7=Loading Coal
TTITLE8=Dorraine Of Ponchartrain
TTITLE9=Old Doc Brown
TTITLE10=The Fable Of Willie Brown
TTITLE11=Smiling Bill Mccall
TTITLE12=I Couldn't Keep From Crying
TTITLE13=My Shoes Keep Walking Back To
TTITLE14=I Will Miss You When You Go
TTITLE15=I Feel Better All Over
TTITLE16=Why Do You Punish Me?
TTITLE17=Just One More
TTITLE18=Seasons Of My Heart
TTITLE19=Honky Tonk Girl
TTITLE20=I'm So Lonesome I Could Cry
TTITLE21=Time Changes Everything
TTITLE22=I'd Just Be Fool Enough
TTITLE23=Transfusion Blues
TTITLE24=The Losing Kind
TTITLE25=Lovin' Locomotive Man
EXTD=
EXTT0=
EXTT1=
EXTT2=
EXTT3=
EXTT4=
EXTT5=
EXTT6=
EXTT7=
EXTT8=
EXTT9=
EXTT10=
EXTT11=
EXTT12=
EXTT13=
EXTT14=
EXTT15=
EXTT16=
EXTT17=
EXTT18=
EXTT19=
EXTT20=
EXTT21=
EXTT22=
EXTT23=
EXTT24=
EXTT25=
PLAYORDER=
